<?xml version="1.0" encoding="UTF-8"?>
<!DOCTYPE svg
PUBLIC "-//W3C//DTD SVG 1.1//EN"
       "http://www.w3.org/Graphics/SVG/1.1/DTD/svg11.dtd">
<svg viewBox="49 16 1180 687" width="1131px" height="671px" xmlns="http://www.w3.org/2000/svg" version="1.1">
   <line x1="179" y1="550" x2="189" y2="550" style="stroke:#b0b;stroke-width:1;"/>
   <line x1="275" y1="132" x2="285" y2="132" style="stroke:#b0b;stroke-width:1;"/>
   <line x1="189" y1="550" x2="275" y2="132" style="stroke:#b0b;stroke-width:1;"/>
   <line x1="186.5" y1="550" x2="182.96446609407" y2="553.53553390593" style="stroke:#b0b;stroke-width:2;"/>
   <line x1="186.5" y1="550" x2="182.96446609407" y2="546.46446609407" style="stroke:#b0b;stroke-width:2;"/>
   <line x1="280" y1="132" x2="276.46446609407" y2="135.53553390593" style="stroke:#b0b;stroke-width:2;"/>
   <line x1="280" y1="132" x2="276.46446609407" y2="128.46446609407" style="stroke:#b0b;stroke-width:2;"/>
   <line x1="179" y1="530" x2="189" y2="530" style="stroke:#bbb;stroke-width:1;"/>
   <line x1="329" y1="641" x2="339" y2="641" style="stroke:#bbb;stroke-width:1;"/>
   <line x1="189" y1="530" x2="329" y2="641" style="stroke:#bbb;stroke-width:1;"/>
   <line x1="186.5" y1="530" x2="182.96446609407" y2="533.53553390593" style="stroke:#bbb;stroke-width:2;"/>
   <line x1="186.5" y1="530" x2="182.96446609407" y2="526.46446609407" style="stroke:#bbb;stroke-width:2;"/>
   <line x1="334" y1="641" x2="330.46446609407" y2="644.53553390593" style="stroke:#bbb;stroke-width:2;"/>
   <line x1="334" y1="641" x2="330.46446609407" y2="637.46446609407" style="stroke:#bbb;stroke-width:2;"/>
   <line x1="390" y1="172" x2="400" y2="172" style="stroke:#0b0;stroke-width:1;"/>
   <line x1="686" y1="61" x2="696" y2="61" style="stroke:#0b0;stroke-width:1;"/>
   <line x1="400" y1="172" x2="686" y2="61" style="stroke:#0b0;stroke-width:1;"/>
   <line x1="397.5" y1="172" x2="393.96446609407" y2="175.53553390593" style="stroke:#0b0;stroke-width:2;"/>
   <line x1="397.5" y1="172" x2="393.96446609407" y2="168.46446609407" style="stroke:#0b0;stroke-width:2;"/>
   <line x1="691" y1="61" x2="687.46446609407" y2="64.535533905933" style="stroke:#0b0;stroke-width:2;"/>
   <line x1="691" y1="61" x2="687.46446609407" y2="57.464466094067" style="stroke:#0b0;stroke-width:2;"/>
   <line x1="390" y1="192" x2="400" y2="192" style="stroke:#cb0;stroke-width:1;"/>
   <line x1="1050" y1="478" x2="1060" y2="478" style="stroke:#cb0;stroke-width:1;"/>
   <line x1="400" y1="192" x2="1050" y2="478" style="stroke:#cb0;stroke-width:1;"/>
   <line x1="397.5" y1="192" x2="393.96446609407" y2="195.53553390593" style="stroke:#cb0;stroke-width:2;"/>
   <line x1="397.5" y1="192" x2="393.96446609407" y2="188.46446609407" style="stroke:#cb0;stroke-width:2;"/>
   <line x1="1055" y1="478" x2="1051.4644660941" y2="481.53553390593" style="stroke:#cb0;stroke-width:2;"/>
   <line x1="1055" y1="478" x2="1051.4644660941" y2="474.46446609407" style="stroke:#cb0;stroke-width:2;"/>
   <line x1="390" y1="152" x2="400" y2="152" style="stroke:#0bf;stroke-width:1;"/>
   <line x1="664" y1="242" x2="674" y2="242" style="stroke:#0bf;stroke-width:1;"/>
   <line x1="400" y1="152" x2="664" y2="242" style="stroke:#0bf;stroke-width:1;"/>
   <line x1="397.5" y1="152" x2="393.96446609407" y2="155.53553390593" style="stroke:#0bf;stroke-width:2;"/>
   <line x1="397.5" y1="152" x2="393.96446609407" y2="148.46446609407" style="stroke:#0bf;stroke-width:2;"/>
   <line x1="669" y1="242" x2="665.46446609407" y2="245.53553390593" style="stroke:#0bf;stroke-width:2;"/>
   <line x1="669" y1="242" x2="665.46446609407" y2="238.46446609407" style="stroke:#0bf;stroke-width:2;"/>
   <line x1="1060" y1="578" x2="1050" y2="578" style="stroke:#0b0;stroke-width:1;"/>
   <line x1="789" y1="242" x2="779" y2="242" style="stroke:#0b0;stroke-width:1;"/>
   <line x1="1050" y1="578" x2="789" y2="242" style="stroke:#0b0;stroke-width:1;"/>
   <line x1="1052.5" y1="578" x2="1056.0355339059" y2="581.53553390593" style="stroke:#0b0;stroke-width:2;"/>
   <line x1="1052.5" y1="578" x2="1056.0355339059" y2="574.46446609407" style="stroke:#0b0;stroke-width:2;"/>
   <line x1="784" y1="242" x2="787.53553390593" y2="245.53553390593" style="stroke:#0b0;stroke-width:2;"/>
   <line x1="784" y1="242" x2="787.53553390593" y2="238.46446609407" style="stroke:#0b0;stroke-width:2;"/>
   <line x1="444" y1="501" x2="454" y2="501" style="stroke:#0b0;stroke-width:1;"/>
   <line x1="536" y1="582" x2="546" y2="582" style="stroke:#0b0;stroke-width:1;"/>
   <line x1="454" y1="501" x2="536" y2="582" style="stroke:#0b0;stroke-width:1;"/>
   <line x1="451.5" y1="501" x2="447.96446609407" y2="504.53553390593" style="stroke:#0b0;stroke-width:2;"/>
   <line x1="451.5" y1="501" x2="447.96446609407" y2="497.46446609407" style="stroke:#0b0;stroke-width:2;"/>
   <line x1="541" y1="582" x2="537.46446609407" y2="585.53553390593" style="stroke:#0b0;stroke-width:2;"/>
   <line x1="541" y1="582" x2="537.46446609407" y2="578.46446609407" style="stroke:#0b0;stroke-width:2;"/>
   <line x1="444" y1="521" x2="454" y2="521" style="stroke:#0b0;stroke-width:1;"/>
   <line x1="1050" y1="478" x2="1060" y2="478" style="stroke:#0b0;stroke-width:1;"/>
   <line x1="454" y1="521" x2="1050" y2="478" style="stroke:#0b0;stroke-width:1;"/>
   <line x1="451.5" y1="521" x2="447.96446609407" y2="524.53553390593" style="stroke:#0b0;stroke-width:2;"/>
   <line x1="451.5" y1="521" x2="447.96446609407" y2="517.46446609407" style="stroke:#0b0;stroke-width:2;"/>
   <line x1="1055" y1="478" x2="1051.4644660941" y2="481.53553390593" style="stroke:#0b0;stroke-width:2;"/>
   <line x1="1055" y1="478" x2="1051.4644660941" y2="474.46446609407" style="stroke:#0b0;stroke-width:2;"/>
   <line x1="779" y1="262" x2="789" y2="262" style="stroke:#cb0;stroke-width:1;"/>
   <line x1="1050" y1="478" x2="1060" y2="478" style="stroke:#cb0;stroke-width:1;"/>
   <line x1="789" y1="262" x2="1050" y2="478" style="stroke:#cb0;stroke-width:1;"/>
   <line x1="786.5" y1="262" x2="782.96446609407" y2="265.53553390593" style="stroke:#cb0;stroke-width:2;"/>
   <line x1="786.5" y1="262" x2="782.96446609407" y2="258.46446609407" style="stroke:#cb0;stroke-width:2;"/>
   <line x1="1055" y1="478" x2="1051.4644660941" y2="481.53553390593" style="stroke:#cb0;stroke-width:2;"/>
   <line x1="1055" y1="478" x2="1051.4644660941" y2="474.46446609407" style="stroke:#cb0;stroke-width:2;"/>
   <rect width="105" height="20" x="74" y="460" style="fill:#007;stroke:black;"/>
   <text width="105" height="20" x="79" y="474" style="fill:#fff;" font-family="Arial" font-size="16px"> changement</text>
   <rect width="105" height="20" x="74" y="480" style="fill:#aea;stroke:black;"/>
   <text width="105" height="20" x="79" y="494" style="fill:black;" font-family="Arial" font-size="16px">id</text>
   <rect width="105" height="20" x="74" y="500" style="fill:none;stroke:black;"/>
   <text width="105" height="20" x="79" y="514" style="fill:black;" font-family="Arial" font-size="16px">amount</text>
   <rect width="105" height="20" x="74" y="520" style="fill:none;stroke:black;"/>
   <text width="105" height="20" x="79" y="534" style="fill:black;" font-family="Arial" font-size="16px">id_prodoit</text>
   <rect width="105" height="20" x="74" y="540" style="fill:none;stroke:black;"/>
   <text width="105" height="20" x="79" y="554" style="fill:black;" font-family="Arial" font-size="16px">id_ord</text>
   <rect width="105" height="20" x="696" y="31" style="fill:#007;stroke:black;"/>
   <text width="105" height="20" x="701" y="45" style="fill:#fff;" font-family="Arial" font-size="16px"> client</text>
   <rect width="105" height="20" x="696" y="51" style="fill:#aea;stroke:black;"/>
   <text width="105" height="20" x="701" y="65" style="fill:black;" font-family="Arial" font-size="16px">id</text>
   <rect width="105" height="20" x="696" y="71" style="fill:none;stroke:black;"/>
   <text width="105" height="20" x="701" y="85" style="fill:black;" font-family="Arial" font-size="16px">fname</text>
   <rect width="105" height="20" x="696" y="91" style="fill:none;stroke:black;"/>
   <text width="105" height="20" x="701" y="105" style="fill:black;" font-family="Arial" font-size="16px">name</text>
   <rect width="105" height="20" x="696" y="111" style="fill:none;stroke:black;"/>
   <text width="105" height="20" x="701" y="125" style="fill:black;" font-family="Arial" font-size="16px">created</text>
   <rect width="105" height="20" x="696" y="131" style="fill:none;stroke:black;"/>
   <text width="105" height="20" x="701" y="145" style="fill:black;" font-family="Arial" font-size="16px">img</text>
   <rect width="105" height="20" x="546" y="552" style="fill:#007;stroke:black;"/>
   <text width="105" height="20" x="551" y="566" style="fill:#fff;" font-family="Arial" font-size="16px"> list_prodoit</text>
   <rect width="105" height="20" x="546" y="572" style="fill:#aea;stroke:black;"/>
   <text width="105" height="20" x="551" y="586" style="fill:black;" font-family="Arial" font-size="16px">id</text>
   <rect width="105" height="20" x="546" y="592" style="fill:none;stroke:black;"/>
   <text width="105" height="20" x="551" y="606" style="fill:black;" font-family="Arial" font-size="16px">name</text>
   <rect width="105" height="20" x="546" y="612" style="fill:none;stroke:black;"/>
   <text width="105" height="20" x="551" y="626" style="fill:black;" font-family="Arial" font-size="16px">dci</text>
   <rect width="105" height="20" x="546" y="632" style="fill:none;stroke:black;"/>
   <text width="105" height="20" x="551" y="646" style="fill:black;" font-family="Arial" font-size="16px">dosage</text>
   <rect width="105" height="20" x="546" y="652" style="fill:none;stroke:black;"/>
   <text width="105" height="20" x="551" y="666" style="fill:black;" font-family="Arial" font-size="16px">form</text>
   <rect width="105" height="20" x="64" y="88" style="fill:#007;stroke:black;"/>
   <text width="105" height="20" x="69" y="102" style="fill:#fff;" font-family="Arial" font-size="16px"> noncompliant</text>
   <rect width="105" height="20" x="64" y="108" style="fill:none;stroke:black;"/>
   <text width="105" height="20" x="69" y="122" style="fill:black;" font-family="Arial" font-size="16px">list_prodoit</text>
   <rect width="105" height="20" x="64" y="128" style="fill:none;stroke:black;"/>
   <text width="105" height="20" x="69" y="142" style="fill:black;" font-family="Arial" font-size="16px">ord_id</text>
   <rect width="105" height="20" x="64" y="148" style="fill:none;stroke:black;"/>
   <text width="105" height="20" x="69" y="162" style="fill:black;" font-family="Arial" font-size="16px">amount</text>
   <rect width="105" height="20" x="64" y="168" style="fill:none;stroke:black;"/>
   <text width="105" height="20" x="69" y="182" style="fill:black;" font-family="Arial" font-size="16px">created</text>
   <rect width="105" height="20" x="64" y="188" style="fill:#aea;stroke:black;"/>
   <text width="105" height="20" x="69" y="202" style="fill:black;" font-family="Arial" font-size="16px">id</text>
   <rect width="105" height="20" x="285" y="102" style="fill:#007;stroke:black;"/>
   <text width="105" height="20" x="290" y="116" style="fill:#fff;" font-family="Arial" font-size="16px"> ord</text>
   <rect width="105" height="20" x="285" y="122" style="fill:#aea;stroke:black;"/>
   <text width="105" height="20" x="290" y="136" style="fill:black;" font-family="Arial" font-size="16px">id</text>
   <rect width="105" height="20" x="285" y="142" style="fill:none;stroke:black;"/>
   <text width="105" height="20" x="290" y="156" style="fill:black;" font-family="Arial" font-size="16px">id_user</text>
   <rect width="105" height="20" x="285" y="162" style="fill:none;stroke:black;"/>
   <text width="105" height="20" x="290" y="176" style="fill:black;" font-family="Arial" font-size="16px">id_client</text>
   <rect width="105" height="20" x="285" y="182" style="fill:none;stroke:black;"/>
   <text width="105" height="20" x="290" y="196" style="fill:black;" font-family="Arial" font-size="16px">id_pharm</text>
   <rect width="105" height="20" x="285" y="202" style="fill:none;stroke:black;"/>
   <text width="105" height="20" x="290" y="216" style="fill:black;" font-family="Arial" font-size="16px">created</text>
   <rect width="105" height="20" x="285" y="222" style="fill:none;stroke:black;"/>
   <text width="105" height="20" x="290" y="236" style="fill:black;" font-family="Arial" font-size="16px">ord_date</text>
   <rect width="105" height="20" x="285" y="242" style="fill:none;stroke:black;"/>
   <text width="105" height="20" x="290" y="256" style="fill:black;" font-family="Arial" font-size="16px">next_date</text>
   <rect width="105" height="20" x="285" y="262" style="fill:none;stroke:black;"/>
   <text width="105" height="20" x="290" y="276" style="fill:black;" font-family="Arial" font-size="16px">order_ord</text>
   <rect width="105" height="20" x="285" y="282" style="fill:none;stroke:black;"/>
   <text width="105" height="20" x="290" y="296" style="fill:black;" font-family="Arial" font-size="16px">dure</text>
   <rect width="105" height="20" x="285" y="302" style="fill:none;stroke:black;"/>
   <text width="105" height="20" x="290" y="316" style="fill:black;" font-family="Arial" font-size="16px">ModifiedDate</text>
   <rect width="105" height="20" x="285" y="322" style="fill:none;stroke:black;"/>
   <text width="105" height="20" x="290" y="336" style="fill:black;" font-family="Arial" font-size="16px">complited</text>
   <rect width="105" height="20" x="285" y="342" style="fill:none;stroke:black;"/>
   <text width="105" height="20" x="290" y="356" style="fill:black;" font-family="Arial" font-size="16px">note</text>
   <rect width="105" height="20" x="1060" y="448" style="fill:#007;stroke:black;"/>
   <text width="105" height="20" x="1065" y="462" style="fill:#fff;" font-family="Arial" font-size="16px"> pharm</text>
   <rect width="105" height="20" x="1060" y="468" style="fill:#aea;stroke:black;"/>
   <text width="105" height="20" x="1065" y="482" style="fill:black;" font-family="Arial" font-size="16px">id</text>
   <rect width="105" height="20" x="1060" y="488" style="fill:none;stroke:black;"/>
   <text width="105" height="20" x="1065" y="502" style="fill:black;" font-family="Arial" font-size="16px">name</text>
   <rect width="105" height="20" x="1060" y="508" style="fill:none;stroke:black;"/>
   <text width="105" height="20" x="1065" y="522" style="fill:black;" font-family="Arial" font-size="16px">adress</text>
   <rect width="105" height="20" x="1060" y="528" style="fill:none;stroke:black;"/>
   <text width="105" height="20" x="1065" y="542" style="fill:black;" font-family="Arial" font-size="16px">creation</text>
   <rect width="105" height="20" x="1060" y="548" style="fill:none;stroke:black;"/>
   <text width="105" height="20" x="1065" y="562" style="fill:black;" font-family="Arial" font-size="16px">email</text>
   <rect width="105" height="20" x="1060" y="568" style="fill:none;stroke:black;"/>
   <text width="105" height="20" x="1065" y="582" style="fill:black;" font-family="Arial" font-size="16px">owner</text>
   <rect width="105" height="20" x="339" y="471" style="fill:#007;stroke:black;"/>
   <text width="105" height="20" x="344" y="485" style="fill:#fff;" font-family="Arial" font-size="16px"> prodoit</text>
   <rect width="105" height="20" x="339" y="491" style="fill:none;stroke:black;"/>
   <text width="105" height="20" x="344" y="505" style="fill:black;" font-family="Arial" font-size="16px">list_prodoit</text>
   <rect width="105" height="20" x="339" y="511" style="fill:none;stroke:black;"/>
   <text width="105" height="20" x="344" y="525" style="fill:black;" font-family="Arial" font-size="16px">pharm</text>
   <rect width="105" height="20" x="339" y="531" style="fill:none;stroke:black;"/>
   <text width="105" height="20" x="344" y="545" style="fill:black;" font-family="Arial" font-size="16px">lot</text>
   <rect width="105" height="20" x="339" y="551" style="fill:none;stroke:black;"/>
   <text width="105" height="20" x="344" y="565" style="fill:black;" font-family="Arial" font-size="16px">amount</text>
   <rect width="105" height="20" x="339" y="571" style="fill:none;stroke:black;"/>
   <text width="105" height="20" x="344" y="585" style="fill:black;" font-family="Arial" font-size="16px">Expiration</text>
   <rect width="105" height="20" x="339" y="591" style="fill:none;stroke:black;"/>
   <text width="105" height="20" x="344" y="605" style="fill:black;" font-family="Arial" font-size="16px">created</text>
   <rect width="105" height="20" x="339" y="611" style="fill:none;stroke:black;"/>
   <text width="105" height="20" x="344" y="625" style="fill:black;" font-family="Arial" font-size="16px">inserted</text>
   <rect width="105" height="20" x="339" y="631" style="fill:#aea;stroke:black;"/>
   <text width="105" height="20" x="344" y="645" style="fill:black;" font-family="Arial" font-size="16px">id</text>
   <rect width="105" height="20" x="674" y="212" style="fill:#007;stroke:black;"/>
   <text width="105" height="20" x="679" y="226" style="fill:#fff;" font-family="Arial" font-size="16px"> users</text>
   <rect width="105" height="20" x="674" y="232" style="fill:#aea;stroke:black;"/>
   <text width="105" height="20" x="679" y="246" style="fill:black;" font-family="Arial" font-size="16px">id</text>
   <rect width="105" height="20" x="674" y="252" style="fill:none;stroke:black;"/>
   <text width="105" height="20" x="679" y="266" style="fill:black;" font-family="Arial" font-size="16px">id_pharm</text>
   <rect width="105" height="20" x="674" y="272" style="fill:none;stroke:black;"/>
   <text width="105" height="20" x="679" y="286" style="fill:black;" font-family="Arial" font-size="16px">name</text>
   <rect width="105" height="20" x="674" y="292" style="fill:none;stroke:black;"/>
   <text width="105" height="20" x="679" y="306" style="fill:black;" font-family="Arial" font-size="16px">username</text>
   <rect width="105" height="20" x="674" y="312" style="fill:none;stroke:black;"/>
   <text width="105" height="20" x="679" y="326" style="fill:black;" font-family="Arial" font-size="16px">pwd</text>
   <rect width="105" height="20" x="674" y="332" style="fill:none;stroke:black;"/>
   <text width="105" height="20" x="679" y="346" style="fill:black;" font-family="Arial" font-size="16px">role</text>
   <rect width="105" height="20" x="674" y="352" style="fill:none;stroke:black;"/>
   <text width="105" height="20" x="679" y="366" style="fill:black;" font-family="Arial" font-size="16px">created</text>
</svg>
